<?xml version="1.0" standalone="no"?>
<!DOCTYPE svg PUBLIC "-//W3C//DTD SVG 1.1//EN" "http://www.w3.org/Graphics/SVG/1.1/DTD/svg11.dtd">
<svg width="100%" height="100%" viewBox="0 0 512 512" version="1.1" xmlns="http://www.w3.org/2000/svg" xmlns:xlink="http://www.w3.org/1999/xlink" xml:space="preserve" style="fill-rule:evenodd;clip-rule:evenodd;stroke-linejoin:round;stroke-miterlimit:1.41421;">
    <path d="M484.397,115.311L428.235,163.505C422.506,167.979 418.091,167.528 413.74,162.087L330.574,51.2C323.229,41.405 307.868,42.63 302.303,53.76L256,146.365L218.235,221.897C214.519,228.781 209.575,229.297 203.613,224.537L128.669,149.593C121.433,142.247 109.413,143.36 103.403,151.485L3.228,287.165C1.113,289.948 0,293.51 0,297.071L0,495.304C0,504.543 7.456,512 16.696,512L495.305,512C504.544,512 512.001,504.543 512.001,495.304L512.001,128C512,113.753 495.193,106.073 484.397,115.311Z" style="fill:rgb(210,85,90);fill-rule:nonzero;"/>
    <path d="M484.397,282.268L426.616,331.852C422.299,334.951 418.262,334.469 414.626,330.225L330.574,218.157C323.118,208.251 307.868,209.587 302.303,220.717L256,313.322L216.561,392.202C213.937,397.548 210.496,397.983 206.328,394.209L128.669,316.55C121.323,309.204 109.413,310.428 103.403,318.442L3.228,454.122C1.113,456.904 0,460.466 0,464.028L0,495.305C0,504.543 7.456,512 16.696,512L495.305,512C504.544,512 512.001,504.543 512.001,495.304L512.001,294.957C512,280.71 495.193,273.03 484.397,282.268Z" style="fill:rgb(24,189,246);fill-rule:nonzero;"/>
    <path d="M495.304,512L16.696,512C7.479,512 0,504.527 0,495.304L0,16.696C0,7.473 7.479,0 16.696,0C25.913,0 33.392,7.473 33.392,16.696L33.392,478.609L495.305,478.609C504.522,478.609 512.001,486.082 512.001,495.305C512.001,504.528 504.521,512 495.304,512Z" style="fill:rgb(92,95,102);fill-rule:nonzero;"/>
</svg>
