<?xml version="1.0" standalone="no"?>
<!DOCTYPE svg PUBLIC "-//W3C//DTD SVG 1.1//EN" "http://www.w3.org/Graphics/SVG/1.1/DTD/svg11.dtd">
<svg width="100%" height="100%" viewBox="0 0 512 512" version="1.1" xmlns="http://www.w3.org/2000/svg" xmlns:xlink="http://www.w3.org/1999/xlink" xml:space="preserve" style="fill-rule:evenodd;clip-rule:evenodd;stroke-linejoin:round;stroke-miterlimit:1.41421;">
    <g transform="matrix(1,0,0,1.1547,0,-79.2083)">
        <path d="M484.397,282.268L426.616,331.852C422.299,334.951 418.262,334.469 414.626,330.225L330.574,218.157C323.118,208.251 307.868,209.587 302.303,220.717L256,313.322L216.561,392.202C213.937,397.548 210.496,397.983 206.328,394.209L128.669,316.55C121.323,309.204 109.413,310.428 103.403,318.442L3.228,454.122C1.113,456.904 0,460.466 0,464.028L0,495.305C0,504.543 7.456,512 16.696,512L495.305,512C504.544,512 512.001,504.543 512.001,495.304L512.001,294.957C512,280.71 495.193,273.03 484.397,282.268Z" style="fill:rgb(155,230,210);fill-rule:nonzero;"/>
    </g>
</svg>
