<?xml version="1.0" standalone="no"?>
<!DOCTYPE svg PUBLIC "-//W3C//DTD SVG 1.1//EN" "http://www.w3.org/Graphics/SVG/1.1/DTD/svg11.dtd">
<svg width="100%" height="100%" viewBox="0 0 512 512" version="1.1" xmlns="http://www.w3.org/2000/svg" xmlns:xlink="http://www.w3.org/1999/xlink" xml:space="preserve" style="fill-rule:evenodd;clip-rule:evenodd;stroke-linejoin:round;stroke-miterlimit:1.41421;">
    <g>
        <path d="M495.304,512L16.696,512C7.479,512 0,504.527 0,495.304L0,16.696C0,7.473 7.479,0 16.696,0C25.913,0 33.392,7.473 33.392,16.696L33.392,478.609L495.305,478.609C504.522,478.609 512.001,486.082 512.001,495.305C512.001,504.528 504.521,512 495.304,512Z" style="fill:rgb(92,95,102);fill-rule:nonzero;"/>
    </g>
    <g transform="matrix(1,0,0,1,0,-15.7939)">
        <path d="M295.724,494.345L251.586,494.345C246.711,494.345 242.758,490.392 242.758,485.517L242.758,282.483C242.758,277.608 246.711,273.655 251.586,273.655L295.724,273.655C300.599,273.655 304.552,277.608 304.552,282.483L304.552,485.517C304.552,490.392 300.599,494.345 295.724,494.345Z" style="fill:rgb(255,215,130);fill-rule:nonzero;"/>
    </g>
    <g transform="matrix(1,0,0,1,0,-15.7939)">
        <path d="M295.724,494.345L251.586,494.345C246.711,494.345 242.758,490.392 242.758,485.517L242.758,335.448C242.758,330.573 246.711,326.62 251.586,326.62L295.724,326.62C300.599,326.62 304.552,330.573 304.552,335.448L304.552,485.517C304.552,490.392 300.599,494.345 295.724,494.345Z" style="fill:rgb(255,195,110);fill-rule:nonzero;"/>
    </g>
    <g transform="matrix(1,0,0,1,0,-15.7939)">
        <path d="M384,494.345L339.862,494.345C334.987,494.345 331.034,490.392 331.034,485.517L331.034,123.586C331.034,118.711 334.987,114.758 339.862,114.758L384,114.758C388.875,114.758 392.828,118.711 392.828,123.586L392.828,485.517C392.828,490.392 388.875,494.345 384,494.345Z" style="fill:rgb(195,230,120);fill-rule:nonzero;"/>
    </g>
    <g transform="matrix(1,0,0,1,0,-15.7939)">
        <path d="M384,494.345L339.862,494.345C334.987,494.345 331.034,490.392 331.034,485.517L331.034,229.517C331.034,224.642 334.987,220.689 339.862,220.689L384,220.689C388.875,220.689 392.828,224.642 392.828,229.517L392.828,485.517C392.828,490.392 388.875,494.345 384,494.345Z" style="fill:rgb(165,215,110);fill-rule:nonzero;"/>
    </g>
    <g transform="matrix(1,0,0,1,0,-15.7939)">
        <path d="M119.172,494.345L75.034,494.345C70.159,494.345 66.206,490.392 66.206,485.517L66.206,335.448C66.206,330.573 70.159,326.62 75.034,326.62L119.172,326.62C124.047,326.62 128,330.573 128,335.448L128,485.517C128,490.392 124.047,494.345 119.172,494.345Z" style="fill:rgb(0,210,255);fill-rule:nonzero;"/>
    </g>
    <g transform="matrix(1,0,0,1,0,-15.7939)">
        <path d="M472.276,494.345L428.138,494.345C423.263,494.345 419.31,490.392 419.31,485.517L419.31,70.621C419.31,65.746 423.263,61.793 428.138,61.793L472.276,61.793C477.151,61.793 481.104,65.746 481.104,70.621L481.104,485.518C481.103,490.392 477.151,494.345 472.276,494.345Z" style="fill:rgb(155,230,210);fill-rule:nonzero;"/>
    </g>
    <g transform="matrix(1,0,0,1,0,-15.7939)">
        <path d="M472.276,494.345L428.138,494.345C423.263,494.345 419.31,490.392 419.31,485.517L419.31,176.552C419.31,171.677 423.263,167.724 428.138,167.724L472.276,167.724C477.151,167.724 481.104,171.677 481.104,176.552L481.104,485.518C481.103,490.392 477.151,494.345 472.276,494.345Z" style="fill:rgb(120,210,190);fill-rule:nonzero;"/>
    </g>
    <g transform="matrix(1,0,0,1,0,-15.7939)">
        <path d="M207.448,494.345L163.31,494.345C158.435,494.345 154.482,490.392 154.482,485.517L154.482,229.517C154.482,224.642 158.435,220.689 163.31,220.689L207.448,220.689C212.323,220.689 216.276,224.642 216.276,229.517L216.276,485.517C216.276,490.392 212.323,494.345 207.448,494.345Z" style="fill:rgb(255,100,100);fill-rule:nonzero;"/>
    </g>
    <g transform="matrix(1,0,0,1,0,-15.7939)">
        <path d="M207.448,494.345L163.31,494.345C158.435,494.345 154.482,490.392 154.482,485.517L154.482,282.483C154.482,277.608 158.435,273.655 163.31,273.655L207.448,273.655C212.323,273.655 216.276,277.608 216.276,282.483L216.276,485.517C216.276,490.392 212.323,494.345 207.448,494.345Z" style="fill:rgb(210,85,90);fill-rule:nonzero;"/>
    </g>
    <g transform="matrix(1,0,0,1,0,-15.7939)">
        <path d="M119.172,494.345L75.034,494.345C70.159,494.345 66.206,490.392 66.206,485.517L66.206,388.414C66.206,383.539 70.159,379.586 75.034,379.586L119.172,379.586C124.047,379.586 128,383.539 128,388.414L128,485.517C128,490.392 124.047,494.345 119.172,494.345Z" style="fill:rgb(24,189,246);fill-rule:nonzero;"/>
    </g>
</svg>
