<?xml version="1.0" standalone="no"?>
<!DOCTYPE svg PUBLIC "-//W3C//DTD SVG 1.1//EN" "http://www.w3.org/Graphics/SVG/1.1/DTD/svg11.dtd">
<svg width="100%" height="100%" viewBox="0 0 512 512" version="1.1" xmlns="http://www.w3.org/2000/svg" xmlns:xlink="http://www.w3.org/1999/xlink" xml:space="preserve" style="fill-rule:evenodd;clip-rule:evenodd;stroke-linejoin:round;stroke-miterlimit:1.41421;">
    <g transform="matrix(1.10062,0,0,1.10062,-48.4069,-32.6697)">
        <path d="M384,494.345L339.862,494.345C334.987,494.345 331.034,490.392 331.034,485.517L331.034,229.517C331.034,224.642 334.987,220.689 339.862,220.689L384,220.689C388.875,220.689 392.828,224.642 392.828,229.517L392.828,485.517C392.828,490.392 388.875,494.345 384,494.345Z" style="fill:rgb(195,230,120);fill-rule:nonzero;"/>
    </g>
    <g transform="matrix(1.10062,0,0,1.10062,-48.4069,-32.6697)">
        <path d="M295.724,494.345L251.586,494.345C246.711,494.345 242.758,490.392 242.758,485.517L242.758,298.843C242.758,293.968 246.711,290.015 251.586,290.015L295.724,290.015C300.599,290.015 304.552,293.968 304.552,298.843L304.552,485.517C304.552,490.392 300.599,494.345 295.724,494.345Z" style="fill:rgb(255,215,130);fill-rule:nonzero;"/>
    </g>
    <g transform="matrix(1.10062,0,0,1.10062,-48.4069,-32.6697)">
        <path d="M472.276,494.345L428.138,494.345C423.263,494.345 419.31,490.392 419.31,485.517L419.31,176.552C419.31,171.677 423.263,167.724 428.138,167.724L472.276,167.724C477.151,167.724 481.104,171.677 481.104,176.552L481.104,485.518C481.103,490.392 477.151,494.345 472.276,494.345Z" style="fill:rgb(155,230,210);fill-rule:nonzero;"/>
    </g>
    <g transform="matrix(1.10062,0,0,1.10062,-48.4069,-32.6697)">
        <path d="M207.448,494.345L163.31,494.345C158.435,494.345 154.482,490.392 154.482,485.517L154.482,390.254C154.482,385.379 158.435,381.426 163.31,381.426L207.448,381.426C212.323,381.426 216.276,385.379 216.276,390.254L216.276,485.517C216.276,490.392 212.323,494.345 207.448,494.345Z" style="fill:rgb(255,100,100);fill-rule:nonzero;"/>
    </g>
    <g transform="matrix(1.10062,0,0,1.10062,-48.4069,-32.6697)">
        <path d="M119.172,494.345L75.034,494.345C70.159,494.345 66.206,490.392 66.206,485.517L66.206,271.314C66.206,266.439 70.159,262.486 75.034,262.486L119.172,262.486C124.047,262.486 128,266.439 128,271.314L128,485.517C128,490.392 124.047,494.345 119.172,494.345Z" style="fill:rgb(0,210,255);fill-rule:nonzero;"/>
    </g>
    <g transform="matrix(0.917899,0,0,0.917899,38.8065,160.4)">
        <path d="M32.155,266.805L9.755,244.405L233.723,19.369L338.644,124.289L437.333,25.6L459.733,48L338.644,169.089L233.723,64.169L32.155,266.805Z" style="fill:rgb(117,117,117);fill-rule:nonzero;"/>
    </g>
</svg>
