<?xml version="1.0" standalone="no"?>
<!DOCTYPE svg PUBLIC "-//W3C//DTD SVG 1.1//EN" "http://www.w3.org/Graphics/SVG/1.1/DTD/svg11.dtd">
<svg width="100%" height="100%" viewBox="0 0 512 512" version="1.1" xmlns="http://www.w3.org/2000/svg" xmlns:xlink="http://www.w3.org/1999/xlink" xml:space="preserve" style="fill-rule:evenodd;clip-rule:evenodd;stroke-linejoin:round;stroke-miterlimit:1.41421;">
    <g transform="matrix(1.07662,0,0,1.07662,-36.8616,-20.5284)">
        <path d="M295.724,494.345L285.593,494.345C280.718,494.345 276.765,490.392 276.765,485.517L276.765,282.483C276.765,277.608 280.718,273.655 285.593,273.655L295.724,273.655C300.599,273.655 304.552,277.608 304.552,282.483L304.552,485.517C304.552,490.392 300.599,494.345 295.724,494.345Z" style="fill:rgb(255,100,100);fill-rule:nonzero;"/>
    </g>
    <g transform="matrix(1.07662,0,0,1.07662,-36.8616,-20.5284)">
        <path d="M262.905,494.345L251.586,494.345C246.711,494.345 242.758,490.392 242.758,485.517L242.758,387.959C242.758,383.084 246.711,379.131 251.586,379.131L262.905,379.131C267.78,379.131 271.733,383.084 271.733,387.959L271.733,485.517C271.733,490.392 267.78,494.345 262.905,494.345Z" style="fill:rgb(0,210,255);fill-rule:nonzero;"/>
    </g>
    <g transform="matrix(1.07662,0,0,1.07662,-36.8616,-20.5284)">
        <path d="M384,494.345L374.03,494.345C369.155,494.345 365.202,490.392 365.202,485.517L365.202,226.797C365.202,221.922 369.155,217.969 374.03,217.969L384,217.969C388.875,217.969 392.828,221.922 392.828,226.797L392.828,485.517C392.828,490.392 388.875,494.345 384,494.345Z" style="fill:rgb(255,100,100);fill-rule:nonzero;"/>
    </g>
    <g transform="matrix(1.07662,0,0,1.07662,-36.8616,-20.5284)">
        <path d="M350.977,494.345L339.862,494.345C334.987,494.345 331.034,490.392 331.034,485.517L331.034,138.539C331.034,133.664 334.987,129.711 339.862,129.711L350.977,129.711C355.852,129.711 359.805,133.664 359.805,138.539L359.805,485.517C359.805,490.392 355.852,494.345 350.977,494.345Z" style="fill:rgb(0,210,255);fill-rule:nonzero;"/>
    </g>
    <g transform="matrix(1.07662,0,0,1.07662,-36.8616,-20.5284)">
        <path d="M119.172,494.345L107.837,494.345C102.962,494.345 99.009,490.392 99.009,485.517L99.009,335.448C99.009,330.573 102.962,326.62 107.837,326.62L119.172,326.62C124.047,326.62 128,330.573 128,335.448L128,485.517C128,490.392 124.047,494.345 119.172,494.345Z" style="fill:rgb(255,100,100);fill-rule:nonzero;"/>
    </g>
    <g transform="matrix(1.07662,0,0,1.07662,-36.8616,-20.5284)">
        <path d="M472.276,494.345L462.35,494.345C457.475,494.345 453.522,490.392 453.522,485.517L453.522,70.621C453.522,65.746 457.475,61.793 462.35,61.793L472.276,61.793C477.151,61.793 481.104,65.746 481.104,70.621L481.104,485.518C481.103,490.392 477.151,494.345 472.276,494.345Z" style="fill:rgb(255,100,100);fill-rule:nonzero;"/>
    </g>
    <g transform="matrix(1.07662,0,0,1.07662,-36.8616,-20.5284)">
        <path d="M439.831,494.345L428.138,494.345C423.263,494.345 419.31,490.392 419.31,485.517L419.31,384.258C419.31,379.383 423.263,375.43 428.138,375.43L439.831,375.43C444.706,375.43 448.659,379.383 448.659,384.258L448.659,485.518C448.658,490.392 444.706,494.345 439.831,494.345Z" style="fill:rgb(0,210,255);fill-rule:nonzero;"/>
    </g>
    <g transform="matrix(1.07662,0,0,1.07662,-36.8616,-20.5284)">
        <path d="M207.448,494.345L196.466,494.345C191.591,494.345 187.638,490.392 187.638,485.517L187.638,186.447C187.638,181.572 191.591,177.619 196.466,177.619L207.448,177.619C212.323,177.619 216.276,181.572 216.276,186.447L216.276,485.517C216.276,490.392 212.323,494.345 207.448,494.345Z" style="fill:rgb(255,100,100);fill-rule:nonzero;"/>
    </g>
    <g transform="matrix(1.07662,0,0,1.07662,-36.8616,-20.5284)">
        <path d="M174.834,494.322L163.31,494.345C158.435,494.345 154.482,490.392 154.482,485.517L154.482,247.266C154.482,242.604 158.096,238.786 162.675,238.46C162.885,238.445 163.096,238.438 163.31,238.438L174.834,238.394C179.709,238.394 183.662,242.347 183.662,247.222L183.662,485.494C183.662,490.369 179.709,494.322 174.834,494.322Z" style="fill:rgb(0,210,255);fill-rule:nonzero;"/>
    </g>
    <g transform="matrix(1.07662,0,0,1.07662,-36.8616,-20.5284)">
        <path d="M85.218,494.345L75.034,494.345C70.159,494.345 66.206,490.392 66.206,485.517L66.206,309.069C66.206,304.194 70.159,300.241 75.034,300.241L85.218,300.241C90.093,300.241 94.046,304.194 94.046,309.069L94.046,485.517C94.046,490.392 90.093,494.345 85.218,494.345Z" style="fill:rgb(0,210,255);fill-rule:nonzero;"/>
    </g>
</svg>
