<?xml version="1.0" standalone="no"?>
<!DOCTYPE svg PUBLIC "-//W3C//DTD SVG 1.1//EN" "http://www.w3.org/Graphics/SVG/1.1/DTD/svg11.dtd">
<svg width="100%" height="100%" viewBox="0 0 512 512" version="1.1" xmlns="http://www.w3.org/2000/svg" xmlns:xlink="http://www.w3.org/1999/xlink" xml:space="preserve" style="fill-rule:evenodd;clip-rule:evenodd;stroke-linejoin:round;stroke-miterlimit:1.41421;">
    <g transform="matrix(1.07538,0,0,1.07538,-36.2671,-59.452)">
        <path d="M295.724,448.995L251.586,448.995C246.711,448.995 242.758,445.042 242.758,440.167L242.758,322.57C242.758,317.695 246.711,313.742 251.586,313.742L295.724,313.742C300.599,313.742 304.552,317.695 304.552,322.57L304.552,440.167C304.552,445.042 300.599,448.995 295.724,448.995Z" style="fill:rgb(255,100,100);fill-rule:nonzero;"/>
    </g>
    <g transform="matrix(1.07538,0,0,1.07538,-36.2671,-171.901)">
        <path d="M295.724,415.926L251.586,415.926C246.711,415.926 242.758,411.973 242.758,407.098L242.758,287.285C242.758,282.41 246.711,278.457 251.586,278.457L295.724,278.457C300.599,278.457 304.552,282.41 304.552,287.285L304.552,407.098C304.552,411.973 300.599,415.926 295.724,415.926Z" style="fill:rgb(155,230,210);fill-rule:nonzero;"/>
    </g>
    <g transform="matrix(1.07538,0,0,1.07538,-36.2671,-245.334)">
        <path d="M295.724,344.099L251.586,344.099C246.711,344.099 242.758,340.146 242.758,335.271L242.758,239.214C242.758,234.339 246.711,230.386 251.586,230.386L295.724,230.386C300.599,230.386 304.552,234.339 304.552,239.214L304.552,335.271C304.552,340.146 300.599,344.099 295.724,344.099Z" style="fill:rgb(255,215,130);fill-rule:nonzero;"/>
    </g>
    <g transform="matrix(1.07538,0,0,1.07538,-36.2671,-20.452)">
        <path d="M295.724,494.345L251.586,494.345C246.711,494.345 242.758,490.392 242.758,485.517L242.758,424.157C242.758,419.282 246.711,415.329 251.586,415.329L295.724,415.329C300.599,415.329 304.552,419.282 304.552,424.157L304.552,485.517C304.552,490.392 300.599,494.345 295.724,494.345Z" style="fill:rgb(0,210,255);fill-rule:nonzero;"/>
    </g>
    <g transform="matrix(1.07538,0,0,1.07538,-36.2671,-23.452)">
        <path d="M384,365.369L339.862,365.369C334.987,365.369 331.034,361.416 331.034,356.541L331.034,156.939C331.034,152.064 334.987,148.111 339.862,148.111L384,148.111C388.875,148.111 392.828,152.064 392.828,156.939L392.828,356.541C392.828,361.416 388.875,365.369 384,365.369Z" style="fill:rgb(255,100,100);fill-rule:nonzero;"/>
    </g>
    <g transform="matrix(1.07538,0,0,1.07538,-36.2671,-104.345)">
        <path d="M384,220.689L339.862,220.689C334.987,220.689 331.034,216.736 331.034,211.861L331.034,153.806C331.034,148.931 334.987,144.978 339.862,144.978L384,144.978C388.875,144.978 392.828,148.931 392.828,153.806L392.828,211.861C392.828,216.736 388.875,220.689 384,220.689Z" style="fill:rgb(155,230,210);fill-rule:nonzero;"/>
    </g>
    <g transform="matrix(1.07538,0,0,1.07538,-36.2671,-188.763)">
        <path d="M384,220.689L339.862,220.689C334.987,220.689 331.034,216.736 331.034,211.861L331.034,186.609C331.034,181.734 334.987,177.781 339.862,177.781L384,177.781C388.875,177.781 392.828,181.734 392.828,186.609L392.828,211.861C392.828,216.736 388.875,220.689 384,220.689Z" style="fill:rgb(255,215,130);fill-rule:nonzero;"/>
    </g>
    <g transform="matrix(1.07538,0,0,1.07538,-36.2671,-20.452)">
        <path d="M384,494.345L339.862,494.345C334.987,494.345 331.034,490.392 331.034,485.517L331.034,374.197C331.034,369.322 334.987,365.369 339.862,365.369L384,365.369C388.875,365.369 392.828,369.322 392.828,374.197L392.828,485.517C392.828,490.392 388.875,494.345 384,494.345Z" style="fill:rgb(0,210,255);fill-rule:nonzero;"/>
    </g>
    <g transform="matrix(1.07538,0,0,1.07538,-36.2671,-23.452)">
        <path d="M119.172,379.586L75.034,379.586C70.159,379.586 66.206,375.633 66.206,370.758L66.206,274.382C66.206,269.507 70.159,265.554 75.034,265.554L119.172,265.554C124.461,265.554 128,269.507 128,274.382L128,370.758C128,375.633 124.047,379.586 119.172,379.586Z" style="fill:rgb(255,100,100);fill-rule:nonzero;"/>
    </g>
    <g transform="matrix(1.07538,0,0,1.07538,-36.2671,-149.08)">
        <path d="M119.172,379.586L75.034,379.586C70.159,379.586 66.206,375.633 66.206,370.758L66.206,324.7C66.206,319.825 70.159,315.872 75.034,315.872L119.172,315.872C124.461,315.872 128,319.825 128,324.7L128,370.758C128,375.633 124.047,379.586 119.172,379.586Z" style="fill:rgb(155,230,210);fill-rule:nonzero;"/>
    </g>
    <g transform="matrix(1.07538,0,0,1.07538,-36.2671,-220.597)">
        <path d="M119.172,379.586L75.034,379.586C70.159,379.586 66.206,375.633 66.206,370.758L66.206,216.211C66.206,211.336 70.159,207.383 75.034,207.383L119.172,207.383C124.461,207.383 128,211.336 128,216.211L128,370.758C128,375.633 124.047,379.586 119.172,379.586Z" style="fill:rgb(255,215,130);fill-rule:nonzero;"/>
    </g>
    <g transform="matrix(1.07538,0,0,1.07538,-36.2671,-26.452)">
        <path d="M472.276,222.684L428.138,222.684C423.263,222.684 419.31,218.731 419.31,213.856L419.31,177.365C419.31,172.49 423.263,168.537 428.138,168.537L472.276,168.537C477.151,168.537 481.104,172.49 481.104,177.365L481.104,213.857C481.103,218.731 477.151,222.684 472.276,222.684Z" style="fill:rgb(155,230,210);fill-rule:nonzero;"/>
    </g>
    <g transform="matrix(1.07538,0,0,1.07538,-36.2671,-61.138)">
        <path d="M472.276,198.002L428.138,198.002C423.263,198.002 419.31,194.049 419.31,189.174L419.31,67.93C419.31,63.055 423.263,59.102 428.138,59.102L472.276,59.102C477.151,59.102 481.104,63.055 481.104,67.93L481.104,189.175C481.103,194.049 477.151,198.002 472.276,198.002Z" style="fill:rgb(255,215,130);fill-rule:nonzero;"/>
    </g>
    <g transform="matrix(1.07538,0,0,1.07538,-36.2671,79.9736)">
        <path d="M472.276,239.281L428.138,239.281C423.263,239.281 419.31,235.328 419.31,230.453L419.31,134.373C419.31,129.498 423.263,125.545 428.138,125.545L472.276,125.545C477.151,125.545 481.104,129.498 481.104,134.373L481.104,230.454C481.103,235.328 477.151,239.281 472.276,239.281Z" style="fill:rgb(255,100,100);fill-rule:nonzero;"/>
    </g>
    <g transform="matrix(1.07538,0,0,1.07538,-36.2671,-20.452)">
        <path d="M472.276,494.345L428.138,494.345C423.263,494.345 419.31,490.392 419.31,485.517L419.31,345.102C419.31,340.227 423.263,336.274 428.138,336.274L472.276,336.274C477.151,336.274 481.104,340.227 481.104,345.102L481.104,485.518C481.103,490.392 477.151,494.345 472.276,494.345Z" style="fill:rgb(0,210,255);fill-rule:nonzero;"/>
    </g>
    <g transform="matrix(1.07538,0,0,1.07538,-36.2671,-23.452)">
        <path d="M207.448,309.385L163.31,309.385C158.435,309.385 154.482,305.432 154.482,300.557L154.482,229.517C154.482,224.642 158.435,220.689 163.31,220.689L207.448,220.689C212.323,220.689 216.276,224.642 216.276,229.517L216.276,300.557C216.276,305.432 212.323,309.385 207.448,309.385Z" style="fill:rgb(255,100,100);fill-rule:nonzero;"/>
    </g>
    <g transform="matrix(1.07538,0,0,1.07538,-36.2671,-83.41)">
        <path d="M207.448,273.655L163.31,273.655C158.435,273.655 154.482,269.702 154.482,264.827L154.482,175.913C154.482,171.038 158.435,167.085 163.31,167.085L207.448,167.085C212.323,167.085 216.276,171.038 216.276,175.913L216.276,264.827C216.276,269.702 212.323,273.655 207.448,273.655Z" style="fill:rgb(155,230,210);fill-rule:nonzero;"/>
    </g>
    <g transform="matrix(1.07538,0,0,1.07538,-36.2671,-201.013)">
        <path d="M207.448,273.655L163.31,273.655C158.435,273.655 154.482,269.702 154.482,264.827L154.482,198C154.482,193.125 158.435,189.172 163.31,189.172L207.448,189.172C212.323,189.172 216.276,193.125 216.276,198L216.276,264.827C216.276,269.702 212.323,273.655 207.448,273.655Z" style="fill:rgb(255,215,130);fill-rule:nonzero;"/>
    </g>
    <g transform="matrix(1.07538,0,0,1.07538,-36.2671,-20.452)">
        <path d="M207.448,494.345L163.31,494.345C158.435,494.345 154.482,490.392 154.482,485.517L154.482,317.919C154.482,313.044 158.435,309.091 163.31,309.091L207.448,309.091C212.323,309.091 216.276,313.044 216.276,317.919L216.276,485.517C216.276,490.392 212.323,494.345 207.448,494.345Z" style="fill:rgb(0,210,255);fill-rule:nonzero;"/>
    </g>
    <g transform="matrix(1.07538,0,0,1.07538,-36.2671,-20.452)">
        <path d="M119.172,494.345L75.034,494.345C70.159,494.345 66.206,490.392 66.206,485.517L66.206,388.414C66.206,383.539 70.159,379.586 75.034,379.586L119.172,379.586C124.047,379.586 128,383.539 128,388.414L128,485.517C128,490.392 124.047,494.345 119.172,494.345Z" style="fill:rgb(0,210,255);fill-rule:nonzero;"/>
    </g>
</svg>
