<?xml version="1.0" standalone="no"?>
<!DOCTYPE svg PUBLIC "-//W3C//DTD SVG 1.1//EN" "http://www.w3.org/Graphics/SVG/1.1/DTD/svg11.dtd">
<svg width="100%" height="100%" viewBox="0 0 58 58" version="1.1" xmlns="http://www.w3.org/2000/svg" xmlns:xlink="http://www.w3.org/1999/xlink" xml:space="preserve" style="fill-rule:evenodd;clip-rule:evenodd;stroke-linejoin:round;stroke-miterlimit:1.41421;">
    <g>
        <g transform="matrix(0.610825,0,0,0.610825,8.12643,10.3109)">
            <path d="M31,26.962L57.924,26.962C56.94,12.541 45.421,1.022 31,0.038L31,26.962Z" style="fill:rgb(255,100,100);fill-rule:nonzero;"/>
        </g>
        <g transform="matrix(0.826229,0,0,0.826229,0.255028,1.42593)">
            <path d="M50.386,48.615C54.729,43.905 57.537,37.757 58,30.962L32.733,30.962L50.386,48.615Z" style="fill:rgb(255,215,130);fill-rule:nonzero;"/>
        </g>
        <g transform="matrix(0.704916,0,0,0.704916,7.76563,7.00584)">
            <path d="M27,28.134L27,0.038C11.918,1.067 0,13.619 0,28.962C0,36.25 2.695,42.905 7.134,48L27,28.134Z" style="fill:rgb(0,210,255);fill-rule:nonzero;"/>
        </g>
        <g transform="matrix(1,0,0,1,-1.40867,-5.27156)">
            <path d="M28.414,32.376L9.962,50.828C15.057,55.267 21.712,57.962 29,57.962C35.99,57.962 42.396,55.483 47.401,51.363L28.414,32.376Z" style="fill:rgb(195,230,120);fill-rule:nonzero;"/>
        </g>
    </g>
</svg>
